%TF.GenerationSoftware,KiCad,Pcbnew,10.0.3*%
%TF.CreationDate,2026-09-09T00:46:25+02:00*%
%TF.ProjectId,nanoleaf_shapes,6e616e6f-6c65-4616-965f-736861706573,rev?*%
%TF.SameCoordinates,Original*%
%TF.FileFunction,Plated,1,2,PTH,Drill*%
%TF.FilePolarity,Positive*%
%FSLAX46Y46*%
G04 Gerber Fmt 4.6, Leading zero omitted, Abs format (unit mm)*
G04 Created by KiCad (PCBNEW 10.0.3) date 2026-09-09 00:46:25*
%MOMM*%
%LPD*%
G01*
G04 APERTURE LIST*
%TA.AperFunction,ViaDrill*%
%ADD10C,0.300000*%
%TD*%
%TA.AperFunction,ComponentDrill*%
%ADD11C,0.300000*%
%TD*%
%TA.AperFunction,ViaDrill*%
%ADD12C,0.500000*%
%TD*%
%TA.AperFunction,ComponentDrill*%
%ADD13C,1.000000*%
%TD*%
G04 APERTURE END LIST*
D10*
X72540000Y-76240000D03*
X73310000Y-70170000D03*
X73550000Y-75820000D03*
X73620000Y-74840000D03*
X73700000Y-73940000D03*
X73950000Y-72790000D03*
X74530000Y-80280000D03*
X75060000Y-72820000D03*
X75070000Y-77840000D03*
X76260000Y-70790000D03*
X77050000Y-80450000D03*
X78110000Y-75390000D03*
X80170000Y-77840000D03*
X81550000Y-76270000D03*
X81780000Y-77770000D03*
X82530000Y-80350000D03*
X83450000Y-80200000D03*
X83970000Y-72830000D03*
X84090000Y-84120000D03*
X84160000Y-79780000D03*
X84200000Y-71390000D03*
X84320000Y-69270000D03*
X84360000Y-76730000D03*
X84850000Y-84090000D03*
X86000000Y-84000000D03*
X87500000Y-76730000D03*
X87520000Y-72840000D03*
X88490000Y-83940000D03*
X89400000Y-83960000D03*
X89950000Y-66240000D03*
X90690000Y-83990000D03*
X91140000Y-66240000D03*
X91850000Y-83990000D03*
X92690000Y-83960000D03*
X93110000Y-73560000D03*
X93830000Y-83990000D03*
X95060000Y-83990000D03*
X96200000Y-83990000D03*
X97440000Y-83990000D03*
X98660000Y-83910000D03*
X99690000Y-72570000D03*
X99800000Y-83890000D03*
X101140000Y-70320000D03*
D11*
%TO.C,U1*%
X95920000Y-69260000D03*
X95920000Y-70260000D03*
X96920000Y-69260000D03*
X96920000Y-70260000D03*
%TD*%
D12*
X70240000Y-69760000D03*
X70600000Y-71760000D03*
X70630000Y-73450000D03*
X70630000Y-75210000D03*
X70740000Y-77210000D03*
X71470000Y-84090000D03*
X71580000Y-69750000D03*
X71820000Y-71750000D03*
X72220000Y-75140000D03*
X72250000Y-73520000D03*
X74537500Y-82167500D03*
X74560000Y-67720000D03*
X76670000Y-82810000D03*
X77700000Y-72640000D03*
X80360000Y-70330000D03*
X80390000Y-74770000D03*
X81230000Y-72650000D03*
X82440000Y-74910000D03*
X82440000Y-84120000D03*
X82537500Y-82167500D03*
X82830000Y-76800000D03*
X84537500Y-67067500D03*
X86640000Y-67810000D03*
X87830000Y-80140000D03*
X87940000Y-67810000D03*
X88260000Y-66560000D03*
X88290000Y-70050000D03*
X89730000Y-76710000D03*
X90630000Y-72620000D03*
X90740000Y-81210000D03*
X91910000Y-72620000D03*
X92560000Y-80850000D03*
X92910000Y-74660000D03*
X93350000Y-76770000D03*
X93650000Y-70390000D03*
X94760000Y-81080000D03*
X94890000Y-74580000D03*
X95170000Y-76860000D03*
X95800000Y-71730000D03*
X95830000Y-67490000D03*
X96550000Y-74540000D03*
X96900000Y-67530000D03*
X97850000Y-81000000D03*
X99270000Y-77100000D03*
X100250000Y-66400000D03*
X100260000Y-78450000D03*
X100260000Y-80700000D03*
X100920000Y-74950000D03*
X102160000Y-75640000D03*
X102190000Y-73980000D03*
D13*
%TO.C,J1*%
X102370000Y-66410000D03*
X102370000Y-68950000D03*
X102370000Y-71490000D03*
%TO.C,J2*%
X102410000Y-78000000D03*
X102410000Y-80540000D03*
X102410000Y-83080000D03*
M02*
