%TF.GenerationSoftware,KiCad,Pcbnew,10.0.3*%
%TF.CreationDate,2026-09-09T00:46:28+02:00*%
%TF.ProjectId,nanoleaf_shapes,6e616e6f-6c65-4616-965f-736861706573,rev?*%
%TF.SameCoordinates,Original*%
%TF.FileFunction,Legend,Bot*%
%TF.FilePolarity,Positive*%
%FSLAX46Y46*%
G04 Gerber Fmt 4.6, Leading zero omitted, Abs format (unit mm)*
G04 Created by KiCad (PCBNEW 10.0.3) date 2026-09-09 00:46:28*
%MOMM*%
%LPD*%
G01*
G04 APERTURE LIST*
%ADD10C,0.250000*%
%ADD11C,0.060000*%
%ADD12C,0.150000*%
G04 APERTURE END LIST*
%TO.C,U2*%
D10*
X62037500Y-66617500D02*
X62037500Y-82617500D01*
X62037500Y-82617500D02*
X69607500Y-82617500D01*
X63037500Y-69617500D02*
X63037500Y-70617500D01*
X63037500Y-70617500D02*
X66037500Y-70617500D01*
X63037500Y-71617500D02*
X63037500Y-72617500D01*
X63037500Y-72617500D02*
X66037500Y-72617500D01*
X63037500Y-73617500D02*
X63037500Y-74617500D01*
X63037500Y-74617500D02*
X66037500Y-74617500D01*
X63037500Y-75617500D02*
X63037500Y-81617500D01*
X66037500Y-70617500D02*
X66037500Y-71617500D01*
X66037500Y-71617500D02*
X63037500Y-71617500D01*
X66037500Y-72617500D02*
X66037500Y-73617500D01*
X66037500Y-73617500D02*
X63037500Y-73617500D01*
X66037500Y-74617500D02*
X66037500Y-75617500D01*
X66037500Y-75617500D02*
X63037500Y-75617500D01*
X68037500Y-69617500D02*
X63037500Y-69617500D01*
X68037500Y-79617500D02*
X68037500Y-69617500D01*
X69037500Y-67617500D02*
X69037500Y-81617500D01*
X69607500Y-66617500D02*
X62037500Y-66617500D01*
X71037500Y-68617500D02*
X84037500Y-68617500D01*
X71037500Y-80617500D02*
X71037500Y-68617500D01*
X71467500Y-82617500D02*
X71607500Y-82617500D01*
X71607500Y-66617500D02*
X71467500Y-66617500D01*
X73467500Y-82617500D02*
X73607500Y-82617500D01*
X73607500Y-66617500D02*
X73467500Y-66617500D01*
X75467500Y-82617500D02*
X75607500Y-82617500D01*
X75607500Y-66617500D02*
X75467500Y-66617500D01*
X77467500Y-82617500D02*
X77607500Y-82617500D01*
X77607500Y-66617500D02*
X77467500Y-66617500D01*
X79467500Y-82617500D02*
X79607500Y-82617500D01*
X79607500Y-66617500D02*
X79467500Y-66617500D01*
X81467500Y-82617500D02*
X81607500Y-82617500D01*
X81607500Y-66617500D02*
X81467500Y-66617500D01*
X83467500Y-82617500D02*
X83607500Y-82617500D01*
X83607500Y-66617500D02*
X83467500Y-66617500D01*
X84037500Y-68617500D02*
X84037500Y-80617500D01*
X84037500Y-80617500D02*
X71037500Y-80617500D01*
X85467500Y-82617500D02*
X86037500Y-82617500D01*
X86037500Y-66617500D02*
X85467500Y-66617500D01*
X86037500Y-68687500D02*
X86037500Y-66617500D01*
X86037500Y-70687500D02*
X86037500Y-70547500D01*
X86037500Y-72687500D02*
X86037500Y-72547500D01*
X86037500Y-74687500D02*
X86037500Y-74547500D01*
X86037500Y-76687500D02*
X86037500Y-76547500D01*
X86037500Y-78687500D02*
X86037500Y-78547500D01*
X86037500Y-82617500D02*
X86037500Y-80547500D01*
D11*
X62067500Y-66617500D02*
G75*
G02*
X62007500Y-66617500I-30000J0D01*
G01*
X62007500Y-66617500D02*
G75*
G02*
X62067500Y-66617500I30000J0D01*
G01*
D10*
X69327500Y-65977500D02*
G75*
G02*
X68767500Y-65977500I-280000J0D01*
G01*
X68767500Y-65977500D02*
G75*
G02*
X69327500Y-65977500I280000J0D01*
G01*
%TO.C,SW2*%
D12*
X94030000Y-77280000D02*
X94030000Y-77710000D01*
X94030000Y-80360000D02*
X94030000Y-79930000D01*
X98090000Y-77280000D02*
X94030000Y-77280000D01*
X98090000Y-77710000D02*
X98090000Y-77280000D01*
X98090000Y-80360000D02*
X94030000Y-80360000D01*
X98090000Y-80360000D02*
X98090000Y-79930000D01*
D10*
X96960000Y-78820000D02*
G75*
G02*
X95160000Y-78820000I-900000J0D01*
G01*
X95160000Y-78820000D02*
G75*
G02*
X96960000Y-78820000I900000J0D01*
G01*
D11*
X98590000Y-80290000D02*
G75*
G02*
X98530000Y-80290000I-30000J0D01*
G01*
X98530000Y-80290000D02*
G75*
G02*
X98590000Y-80290000I30000J0D01*
G01*
%TO.C,SW1*%
D12*
X94280000Y-65740000D02*
X94280000Y-66170000D01*
X94280000Y-68820000D02*
X94280000Y-68390000D01*
X98340000Y-65740000D02*
X94280000Y-65740000D01*
X98340000Y-66170000D02*
X98340000Y-65740000D01*
X98340000Y-68820000D02*
X94280000Y-68820000D01*
X98340000Y-68820000D02*
X98340000Y-68390000D01*
D10*
X97210000Y-67280000D02*
G75*
G02*
X95410000Y-67280000I-900000J0D01*
G01*
X95410000Y-67280000D02*
G75*
G02*
X97210000Y-67280000I900000J0D01*
G01*
D11*
X98840000Y-68750000D02*
G75*
G02*
X98780000Y-68750000I-30000J0D01*
G01*
X98780000Y-68750000D02*
G75*
G02*
X98840000Y-68750000I30000J0D01*
G01*
%TD*%
M02*
