%TF.GenerationSoftware,KiCad,Pcbnew,10.0.3*%
%TF.CreationDate,2026-09-09T00:46:28+02:00*%
%TF.ProjectId,nanoleaf_shapes,6e616e6f-6c65-4616-965f-736861706573,rev?*%
%TF.SameCoordinates,Original*%
%TF.FileFunction,Soldermask,Top*%
%TF.FilePolarity,Negative*%
%FSLAX46Y46*%
G04 Gerber Fmt 4.6, Leading zero omitted, Abs format (unit mm)*
G04 Created by KiCad (PCBNEW 10.0.3) date 2026-09-09 00:46:28*
%MOMM*%
%LPD*%
G01*
G04 APERTURE LIST*
G04 Aperture macros list*
%AMRoundRect*
0 Rectangle with rounded corners*
0 $1 Rounding radius*
0 $2 $3 $4 $5 $6 $7 $8 $9 X,Y pos of 4 corners*
0 Add a 4 corners polygon primitive as box body*
4,1,4,$2,$3,$4,$5,$6,$7,$8,$9,$2,$3,0*
0 Add four circle primitives for the rounded corners*
1,1,$1+$1,$2,$3*
1,1,$1+$1,$4,$5*
1,1,$1+$1,$6,$7*
1,1,$1+$1,$8,$9*
0 Add four rect primitives between the rounded corners*
20,1,$1+$1,$2,$3,$4,$5,0*
20,1,$1+$1,$4,$5,$6,$7,0*
20,1,$1+$1,$6,$7,$8,$9,0*
20,1,$1+$1,$8,$9,$2,$3,0*%
G04 Aperture macros list end*
%ADD10R,1.700000X1.700000*%
%ADD11C,1.700000*%
%ADD12R,2.700000X1.635000*%
%ADD13R,0.540000X0.570000*%
%ADD14R,0.600000X1.100000*%
%ADD15R,0.900000X0.800000*%
%ADD16R,1.350000X1.410000*%
%ADD17R,0.790000X0.540000*%
%ADD18R,0.540000X0.790000*%
%ADD19R,3.800000X1.200000*%
%ADD20R,0.570000X0.540000*%
%ADD21RoundRect,0.225000X0.225000X0.375000X-0.225000X0.375000X-0.225000X-0.375000X0.225000X-0.375000X0*%
%ADD22R,0.810000X0.860000*%
%ADD23R,1.635000X2.700000*%
%ADD24R,2.500000X1.800000*%
%ADD25R,0.800000X0.900000*%
%ADD26R,2.000000X2.000000*%
%ADD27C,0.610000*%
%ADD28O,2.038000X0.574000*%
%ADD29R,0.860000X0.810000*%
G04 APERTURE END LIST*
D10*
%TO.C,J2*%
X102410000Y-83080000D03*
D11*
X102410000Y-80540000D03*
X102410000Y-78000000D03*
%TD*%
D12*
%TO.C,C3*%
X85050000Y-78200000D03*
X85050000Y-75160000D03*
%TD*%
%TO.C,C2*%
X88440000Y-78250000D03*
X88440000Y-75210000D03*
%TD*%
D13*
%TO.C,R9*%
X75750000Y-69110000D03*
X75750000Y-69970000D03*
%TD*%
D14*
%TO.C,U4*%
X75010000Y-79170000D03*
X75960000Y-79170000D03*
X76910000Y-79170000D03*
X76910000Y-76570000D03*
X75010000Y-76570000D03*
%TD*%
D15*
%TO.C,C13*%
X89780000Y-69150000D03*
X89780000Y-70550000D03*
%TD*%
D16*
%TO.C,C16*%
X82270000Y-65700000D03*
X82270000Y-67700000D03*
%TD*%
D17*
%TO.C,C10*%
X95880000Y-72990000D03*
X96980000Y-72990000D03*
%TD*%
D13*
%TO.C,R6*%
X78240000Y-80380000D03*
X78240000Y-81240000D03*
%TD*%
D18*
%TO.C,C20*%
X73310000Y-70360000D03*
X73310000Y-71460000D03*
%TD*%
D19*
%TO.C,C11*%
X97590000Y-78750000D03*
X92250000Y-78750000D03*
%TD*%
D18*
%TO.C,C8*%
X75320000Y-65360000D03*
X75320000Y-66460000D03*
%TD*%
D20*
%TO.C,R8*%
X73420000Y-69050000D03*
X74280000Y-69050000D03*
%TD*%
D21*
%TO.C,D2*%
X75810000Y-81020000D03*
X72510000Y-81020000D03*
%TD*%
D13*
%TO.C,R3*%
X94020000Y-65680000D03*
X94020000Y-66540000D03*
%TD*%
D18*
%TO.C,C18*%
X80130000Y-80560000D03*
X80130000Y-81660000D03*
%TD*%
%TO.C,C19*%
X75020000Y-75250000D03*
X75020000Y-74150000D03*
%TD*%
D13*
%TO.C,R10*%
X70920000Y-79270000D03*
X70920000Y-80130000D03*
%TD*%
%TO.C,R7*%
X73750000Y-79220000D03*
X73750000Y-78360000D03*
%TD*%
D18*
%TO.C,C6*%
X72870000Y-65350000D03*
X72870000Y-66450000D03*
%TD*%
%TO.C,C7*%
X74100000Y-65370000D03*
X74100000Y-66470000D03*
%TD*%
D14*
%TO.C,U3*%
X80140000Y-76580000D03*
X79190000Y-76580000D03*
X78240000Y-76580000D03*
X78240000Y-79180000D03*
X80140000Y-79180000D03*
%TD*%
D22*
%TO.C,R5*%
X95590000Y-65900000D03*
X97090000Y-65900000D03*
%TD*%
D18*
%TO.C,C17*%
X72530000Y-79160000D03*
X72530000Y-78060000D03*
%TD*%
D23*
%TO.C,C1*%
X99270000Y-74750000D03*
X102310000Y-74750000D03*
%TD*%
D24*
%TO.C,L1*%
X86200000Y-70270000D03*
X86200000Y-65470000D03*
%TD*%
D25*
%TO.C,C12*%
X89840000Y-67420000D03*
X91240000Y-67420000D03*
%TD*%
D26*
%TO.C,D1*%
X82430000Y-70310000D03*
X78030000Y-70310000D03*
%TD*%
D18*
%TO.C,C21*%
X74540000Y-70360000D03*
X74540000Y-71460000D03*
%TD*%
D16*
%TO.C,C15*%
X80250000Y-65700000D03*
X80250000Y-67700000D03*
%TD*%
D18*
%TO.C,C5*%
X71560000Y-65350000D03*
X71560000Y-66450000D03*
%TD*%
%TO.C,C9*%
X76550000Y-65360000D03*
X76550000Y-66460000D03*
%TD*%
D13*
%TO.C,R1*%
X79170000Y-73530000D03*
X79170000Y-74390000D03*
%TD*%
D27*
%TO.C,U1*%
X95920000Y-70260000D03*
X96920000Y-70260000D03*
X95920000Y-69260000D03*
X96920000Y-69260000D03*
D28*
X99190000Y-71660000D03*
X99190000Y-70390000D03*
X99190000Y-69130000D03*
X99190000Y-67860000D03*
X93650000Y-67860000D03*
X93650000Y-69130000D03*
X93650000Y-70390000D03*
X93650000Y-71660000D03*
D26*
X96420000Y-69760000D03*
%TD*%
D16*
%TO.C,C14*%
X78230000Y-65700000D03*
X78230000Y-67700000D03*
%TD*%
D10*
%TO.C,J1*%
X102370000Y-66410000D03*
D11*
X102370000Y-68950000D03*
X102370000Y-71490000D03*
%TD*%
D29*
%TO.C,R4*%
X91450000Y-69110000D03*
X91450000Y-70610000D03*
%TD*%
D18*
%TO.C,C4*%
X70280000Y-65320000D03*
X70280000Y-66420000D03*
%TD*%
D13*
%TO.C,R2*%
X92730000Y-66530000D03*
X92730000Y-65670000D03*
%TD*%
M02*
